<ttFont>
<head>
    <!-- Most of this table will be recalculated by the compiler -->
    <tableVersion value="1.0"/>
    <fontRevision value="1.0"/>
    <checkSumAdjustment value="0xd2ce9cae"/>
    <magicNumber value="0x5f0f3cf5"/>
    <flags value="00000000 00011111"/>
    <unitsPerEm value="1000"/>
    <created value="Tue Jan 17 04:00:36 2017"/>
    <modified value="Tue Jan 17 04:00:36 2017"/>
    <xMin value="-1448"/>
    <yMin value="-950"/>
    <xMax value="1447"/>
    <yMax value="1450"/>
    <macStyle value="00000000 00000000"/>
    <lowestRecPPEM value="8"/>
    <fontDirectionHint value="2"/>
    <indexToLocFormat value="0"/>
    <glyphDataFormat value="0"/>
  </head>
    <TTGlyph name=".notdef" xMin="50" yMin="0" xMax="200" yMax="533">
      <contour>
        <pt x="50" y="0" on="1"/>
        <pt x="50" y="533" on="1"/>
        <pt x="200" y="533" on="1"/>
        <pt x="200" y="0" on="1"/>
      </contour>
      <contour>
        <pt x="100" y="50" on="1"/>
        <pt x="150" y="50" on="1"/>
        <pt x="150" y="483" on="1"/>
        <pt x="100" y="483" on="1"/>
      </contour>
    </TTGlyph>
    <TTGlyph name="backslash" xMin="56" yMin="-949" xMax="988" yMax="1450">
      <contour>
        <pt x="988" y="-922" on="1"/>
        <pt x="988" y="-933" on="0"/>
        <pt x="972" y="-949" on="0"/>
        <pt x="962" y="-949" on="1"/>
        <pt x="947" y="-949" on="0"/>
        <pt x="940" y="-938" on="1"/>
        <pt x="936" y="-934" on="0"/>
        <pt x="645" y="-155" on="1"/>
        <pt x="554" y="86" on="0"/>
        <pt x="235" y="938" on="0"/>
        <pt x="204" y="1020" on="1"/>
        <pt x="56" y="1416" on="0"/>
        <pt x="56" y="1424" on="1"/>
        <pt x="56" y="1436" on="0"/>
        <pt x="72" y="1450" on="0"/>
        <pt x="84" y="1450" on="1"/>
        <pt x="97" y="1448" on="0"/>
        <pt x="103" y="1439" on="1"/>
        <pt x="107" y="1435" on="0"/>
        <pt x="398" y="656" on="1"/>
        <pt x="489" y="415" on="0"/>
        <pt x="808" y="-437" on="0"/>
        <pt x="839" y="-519" on="1"/>
        <pt x="988" y="-918" on="0"/>
      </contour>
    </TTGlyph>
    <TTGlyph name="braceleft" xMin="130" yMin="-949" xMax="618" yMax="1450">
      <contour>
        <pt x="618" y="-943" on="1"/>
        <pt x="612" y="-949" on="1"/>
        <pt x="582" y="-949" on="1"/>
        <pt x="568" y="-943" on="1"/>
        <pt x="472" y="-903" on="0"/>
        <pt x="350" y="-778" on="0"/>
        <pt x="332" y="-703" on="1"/>
        <pt x="327" y="-682" on="0"/>
        <pt x="326" y="-623" on="0"/>
        <pt x="325" y="-350" on="1"/>
        <pt x="324" y="-28" on="0"/>
        <pt x="323" y="-18" on="1"/>
        <pt x="311" y="60" on="0"/>
        <pt x="213" y="189" on="0"/>
        <pt x="144" y="226" on="1"/>
        <pt x="132" y="233" on="0"/>
        <pt x="131" y="237" on="1"/>
        <pt x="130" y="240" on="0"/>
        <pt x="130" y="260" on="0"/>
        <pt x="132" y="268" on="0"/>
        <pt x="136" y="271" on="0"/>
        <pt x="144" y="275" on="1"/>
        <pt x="207" y="308" on="0"/>
        <pt x="256" y="367" on="1"/>
        <pt x="310" y="436" on="0"/>
        <pt x="323" y="519" on="1"/>
        <pt x="324" y="529" on="0"/>
        <pt x="325" y="851" on="1"/>
        <pt x="326" y="1124" on="0"/>
        <pt x="327" y="1184" on="0"/>
        <pt x="332" y="1205" on="1"/>
        <pt x="369" y="1358" on="0"/>
        <pt x="566" y="1443" on="1"/>
        <pt x="582" y="1450" on="1"/>
        <pt x="612" y="1450" on="1"/>
        <pt x="618" y="1444" on="1"/>
        <pt x="618" y="1429" on="1"/>
        <pt x="618" y="1413" on="0"/>
        <pt x="616" y="1411" on="1"/>
        <pt x="616" y="1409" on="0"/>
        <pt x="606" y="1405" on="1"/>
        <pt x="570" y="1387" on="0"/>
        <pt x="544" y="1367" on="1"/>
        <pt x="449" y="1294" on="0"/>
        <pt x="429" y="1200" on="1"/>
        <pt x="425" y="1180" on="0"/>
        <pt x="424" y="1124" on="0"/>
        <pt x="423" y="851" on="1"/>
        <pt x="422" y="579" on="0"/>
        <pt x="421" y="519" on="0"/>
        <pt x="416" y="498" on="1"/>
        <pt x="401" y="429" on="0"/>
        <pt x="300" y="309" on="0"/>
        <pt x="221" y="267" on="1"/>
        <pt x="218" y="265" on="0"/>
        <pt x="206" y="259" on="0"/>
        <pt x="199" y="255" on="0"/>
        <pt x="197" y="254" on="1"/>
        <pt x="188" y="251" on="1"/>
        <pt x="205" y="242" on="1"/>
        <pt x="290" y="200" on="0"/>
        <pt x="400" y="75" on="0"/>
        <pt x="416" y="3" on="1"/>
        <pt x="421" y="-18" on="0"/>
        <pt x="422" y="-78" on="0"/>
        <pt x="423" y="-349" on="1"/>
        <pt x="423" y="-397" on="0"/>
        <pt x="423" y="-472" on="1"/>
        <pt x="424" y="-677" on="0"/>
        <pt x="428" y="-694" on="1"/>
        <pt x="429" y="-697" on="0"/>
        <pt x="429" y="-699" on="1"/>
        <pt x="449" y="-793" on="0"/>
        <pt x="544" y="-866" on="1"/>
        <pt x="570" y="-886" on="0"/>
        <pt x="606" y="-904" on="1"/>
        <pt x="616" y="-908" on="0"/>
        <pt x="616" y="-910" on="1"/>
        <pt x="618" y="-912" on="0"/>
        <pt x="618" y="-928" on="1"/>
      </contour>
    </TTGlyph>
    <TTGlyph name="braceright" xMin="131" yMin="-949" xMax="618" yMax="1450">
      <contour>
        <pt x="131" y="1414" on="0"/>
        <pt x="131" y="1444" on="0"/>
        <pt x="136" y="1450" on="0"/>
        <pt x="148" y="1450" on="1"/>
        <pt x="153" y="1450" on="1"/>
        <pt x="167" y="1450" on="1"/>
        <pt x="182" y="1444" on="1"/>
        <pt x="276" y="1404" on="0"/>
        <pt x="397" y="1281" on="0"/>
        <pt x="415" y="1207" on="1"/>
        <pt x="421" y="1184" on="0"/>
        <pt x="422" y="1123" on="0"/>
        <pt x="423" y="851" on="1"/>
        <pt x="424" y="531" on="1"/>
        <pt x="426" y="517" on="1"/>
        <pt x="443" y="399" on="0"/>
        <pt x="547" y="313" on="1"/>
        <pt x="584" y="285" on="0"/>
        <pt x="608" y="274" on="1"/>
        <pt x="615" y="270" on="0"/>
        <pt x="618" y="264" on="0"/>
        <pt x="618" y="251" on="1"/>
        <pt x="618" y="241" on="0"/>
        <pt x="617" y="234" on="0"/>
        <pt x="613" y="230" on="0"/>
        <pt x="608" y="227" on="1"/>
        <pt x="550" y="198" on="0"/>
        <pt x="508" y="151" on="1"/>
        <pt x="441" y="78" on="0"/>
        <pt x="426" y="-15" on="1"/>
        <pt x="424" y="-29" on="1"/>
        <pt x="423" y="-350" on="1"/>
        <pt x="422" y="-622" on="0"/>
        <pt x="421" y="-683" on="0"/>
        <pt x="415" y="-706" on="1"/>
        <pt x="397" y="-780" on="0"/>
        <pt x="276" y="-903" on="0"/>
        <pt x="182" y="-943" on="1"/>
        <pt x="167" y="-949" on="1"/>
        <pt x="153" y="-949" on="1"/>
        <pt x="137" y="-949" on="0"/>
        <pt x="131" y="-945" on="0"/>
        <pt x="131" y="-935" on="1"/>
        <pt x="131" y="-928" on="1"/>
        <pt x="131" y="-922" on="1"/>
        <pt x="131" y="-913" on="0"/>
        <pt x="135" y="-907" on="0"/>
        <pt x="142" y="-904" on="1"/>
        <pt x="146" y="-903" on="0"/>
        <pt x="148" y="-902" on="1"/>
        <pt x="298" y="-820" on="0"/>
        <pt x="323" y="-680" on="1"/>
        <pt x="324" y="-663" on="0"/>
        <pt x="326" y="-35" on="0"/>
        <pt x="327" y="-19" on="1"/>
        <pt x="340" y="60" on="0"/>
        <pt x="392" y="125" on="1"/>
        <pt x="415" y="154" on="0"/>
        <pt x="452" y="184" on="1"/>
        <pt x="493" y="216" on="0"/>
        <pt x="541" y="241" on="1"/>
        <pt x="561" y="250" on="1"/>
        <pt x="541" y="260" on="1"/>
        <pt x="354" y="357" on="0"/>
        <pt x="327" y="520" on="1"/>
        <pt x="326" y="537" on="0"/>
        <pt x="324" y="1164" on="0"/>
        <pt x="323" y="1181" on="1"/>
        <pt x="298" y="1321" on="0"/>
        <pt x="148" y="1403" on="1"/>
        <pt x="134" y="1409" on="0"/>
        <pt x="132" y="1413" on="1"/>
      </contour>
    </TTGlyph>
    <TTGlyph name="bracketleft" xMin="247" yMin="-949" xMax="516" yMax="1450">
      <contour>
        <pt x="247" y="-949" on="1"/>
        <pt x="247" y="1450" on="1"/>
        <pt x="516" y="1450" on="1"/>
        <pt x="516" y="1388" on="1"/>
        <pt x="309" y="1388" on="1"/>
        <pt x="309" y="-887" on="1"/>
        <pt x="516" y="-887" on="1"/>
        <pt x="516" y="-949" on="1"/>
      </contour>
    </TTGlyph>
    <TTGlyph name="bracketright" xMin="11" yMin="-949" xMax="280" yMax="1450">
      <contour>
        <pt x="11" y="1388" on="1"/>
        <pt x="11" y="1450" on="1"/>
        <pt x="280" y="1450" on="1"/>
        <pt x="280" y="-949" on="1"/>
        <pt x="11" y="-949" on="1"/>
        <pt x="11" y="-887" on="1"/>
        <pt x="218" y="-887" on="1"/>
        <pt x="218" y="1388" on="1"/>
      </contour>
    </TTGlyph>
    <TTGlyph name="circumflex" xMin="-4" yMin="564" xMax="1447" yMax="772">
      <contour>
        <pt x="-4" y="603" on="1"/>
        <pt x="-14" y="600" on="0"/>
        <pt x="348" y="685" on="0"/>
        <pt x="534" y="728" on="1"/>
        <pt x="720" y="772" on="1"/>
        <pt x="1083" y="688" on="1"/>
        <pt x="1446" y="603" on="0"/>
        <pt x="1447" y="603" on="1"/>
        <pt x="1447" y="602" on="0"/>
        <pt x="1443" y="583" on="1"/>
        <pt x="1439" y="564" on="1"/>
        <pt x="1434" y="564" on="0"/>
        <pt x="726" y="698" on="0"/>
        <pt x="722" y="698" on="1"/>
        <pt x="719" y="698" on="0"/>
        <pt x="362" y="631" on="1"/>
        <pt x="7" y="564" on="0"/>
        <pt x="4" y="564" on="1"/>
        <pt x="0" y="583" on="1"/>
        <pt x="-4" y="602" on="0"/>
      </contour>
    </TTGlyph>
    <TTGlyph name="parenleft" xMin="209" yMin="-949" xMax="701" yMax="1450">
      <contour>
        <pt x="701" y="-940" on="1"/>
        <pt x="701" y="-943" on="0"/>
        <pt x="695" y="-949" on="1"/>
        <pt x="664" y="-949" on="1"/>
        <pt x="660" y="-945" on="1"/>
        <pt x="630" y="-921" on="0"/>
        <pt x="573" y="-860" on="1"/>
        <pt x="263" y="-519" on="0"/>
        <pt x="216" y="53" on="1"/>
        <pt x="209" y="133" on="0"/>
        <pt x="209" y="251" on="1"/>
        <pt x="209" y="367" on="0"/>
        <pt x="216" y="449" on="1"/>
        <pt x="263" y="1020" on="0"/>
        <pt x="573" y="1361" on="1"/>
        <pt x="630" y="1422" on="0"/>
        <pt x="660" y="1446" on="1"/>
        <pt x="664" y="1450" on="1"/>
        <pt x="695" y="1450" on="1"/>
        <pt x="701" y="1444" on="0"/>
        <pt x="701" y="1441" on="1"/>
        <pt x="701" y="1437" on="0"/>
        <pt x="690" y="1425" on="1"/>
        <pt x="495" y="1223" on="0"/>
        <pt x="306" y="645" on="0"/>
        <pt x="306" y="250" on="1"/>
        <pt x="306" y="-67" on="0"/>
        <pt x="370" y="-323" on="1"/>
        <pt x="462" y="-687" on="0"/>
        <pt x="690" y="-924" on="1"/>
        <pt x="701" y="-936" on="0"/>
      </contour>
    </TTGlyph>
    <TTGlyph name="parenright" xMin="34" yMin="-949" xMax="526" yMax="1450">
      <contour>
        <pt x="428" y="251" on="1"/>
        <pt x="428" y="1044" on="0"/>
        <pt x="34" y="1438" on="1"/>
        <pt x="34" y="1446" on="0"/>
        <pt x="42" y="1450" on="0"/>
        <pt x="56" y="1450" on="1"/>
        <pt x="71" y="1450" on="1"/>
        <pt x="75" y="1446" on="1"/>
        <pt x="105" y="1422" on="0"/>
        <pt x="162" y="1361" on="1"/>
        <pt x="472" y="1020" on="0"/>
        <pt x="519" y="449" on="1"/>
        <pt x="526" y="367" on="0"/>
        <pt x="526" y="251" on="1"/>
        <pt x="526" y="134" on="0"/>
        <pt x="519" y="53" on="1"/>
        <pt x="472" y="-519" on="0"/>
        <pt x="162" y="-860" on="1"/>
        <pt x="105" y="-921" on="0"/>
        <pt x="75" y="-945" on="1"/>
        <pt x="71" y="-949" on="1"/>
        <pt x="56" y="-949" on="1"/>
        <pt x="41" y="-949" on="0"/>
        <pt x="34" y="-945" on="0"/>
        <pt x="34" y="-937" on="1"/>
        <pt x="81" y="-890" on="0"/>
        <pt x="140" y="-813" on="1"/>
        <pt x="428" y="-429" on="0"/>
      </contour>
    </TTGlyph>
    <TTGlyph name="radical" xMin="111" yMin="-950" xMax="1020" yMax="1450">
      <contour>
        <pt x="424" y="-948" on="1"/>
        <pt x="422" y="-947" on="0"/>
        <pt x="203" y="79" on="0"/>
        <pt x="202" y="80" on="1"/>
        <pt x="202" y="83" on="0"/>
        <pt x="170" y="31" on="1"/>
        <pt x="163" y="20" on="0"/>
        <pt x="146" y="-8" on="0"/>
        <pt x="142" y="-14" on="1"/>
        <pt x="137" y="-21" on="1"/>
        <pt x="131" y="-16" on="0"/>
        <pt x="124" y="-8" on="1"/>
        <pt x="111" y="5" on="1"/>
        <pt x="187" y="127" on="1"/>
        <pt x="264" y="248" on="1"/>
        <pt x="473" y="-720" on="1"/>
        <pt x="473" y="-717" on="0"/>
        <pt x="981" y="1435" on="0"/>
        <pt x="983" y="1440" on="1"/>
        <pt x="989" y="1450" on="0"/>
        <pt x="1001" y="1450" on="1"/>
        <pt x="1007" y="1450" on="0"/>
        <pt x="1019" y="1440" on="0"/>
        <pt x="1020" y="1433" on="1"/>
        <pt x="1020" y="1425" on="0"/>
        <pt x="464" y="-937" on="0"/>
        <pt x="460" y="-941" on="1"/>
        <pt x="457" y="-950" on="0"/>
        <pt x="436" y="-950" on="1"/>
        <pt x="424" y="-950" on="0"/>
      </contour>
    </TTGlyph>
    <TTGlyph name="slash" xMin="55" yMin="-949" xMax="988" yMax="1450">
      <contour>
        <pt x="81" y="-949" on="1"/>
        <pt x="70" y="-949" on="0"/>
        <pt x="55" y="-931" on="0"/>
        <pt x="55" y="-921" on="1"/>
        <pt x="55" y="-917" on="0"/>
        <pt x="56" y="-915" on="1"/>
        <pt x="59" y="-906" on="0"/>
        <pt x="937" y="1435" on="0"/>
        <pt x="939" y="1438" on="1"/>
        <pt x="944" y="1450" on="0"/>
        <pt x="960" y="1450" on="1"/>
        <pt x="972" y="1450" on="0"/>
        <pt x="989" y="1432" on="0"/>
        <pt x="988" y="1421" on="1"/>
        <pt x="982" y="1403" on="0"/>
        <pt x="839" y="1020" on="1"/>
        <pt x="808" y="938" on="0"/>
        <pt x="489" y="86" on="0"/>
        <pt x="398" y="-155" on="1"/>
        <pt x="107" y="-934" on="0"/>
        <pt x="103" y="-938" on="1"/>
        <pt x="96" y="-949" on="0"/>
      </contour>
    </TTGlyph>
    <TTGlyph name="tilde" xMin="1" yMin="610" xMax="1442" yMax="749">
      <contour>
        <pt x="11" y="610" on="1"/>
        <pt x="1" y="643" on="1"/>
        <pt x="1" y="646" on="0"/>
        <pt x="99" y="678" on="0"/>
        <pt x="119" y="683" on="1"/>
        <pt x="254" y="726" on="0"/>
        <pt x="368" y="741" on="1"/>
        <pt x="419" y="749" on="0"/>
        <pt x="476" y="749" on="1"/>
        <pt x="535" y="749" on="0"/>
        <pt x="547" y="748" on="1"/>
        <pt x="624" y="740" on="0"/>
        <pt x="751" y="703" on="1"/>
        <pt x="841" y="677" on="0"/>
        <pt x="899" y="669" on="1"/>
        <pt x="944" y="662" on="0"/>
        <pt x="999" y="662" on="1"/>
        <pt x="1162" y="662" on="0"/>
        <pt x="1408" y="742" on="1"/>
        <pt x="1429" y="749" on="0"/>
        <pt x="1432" y="749" on="1"/>
        <pt x="1442" y="716" on="1"/>
        <pt x="1442" y="711" on="0"/>
        <pt x="1325" y="676" on="1"/>
        <pt x="1155" y="623" on="0"/>
        <pt x="1012" y="611" on="1"/>
        <pt x="1000" y="610" on="0"/>
        <pt x="910" y="610" on="0"/>
        <pt x="898" y="611" on="1"/>
        <pt x="821" y="618" on="0"/>
        <pt x="692" y="656" on="1"/>
        <pt x="602" y="682" on="0"/>
        <pt x="545" y="690" on="1"/>
        <pt x="499" y="697" on="0"/>
        <pt x="444" y="697" on="1"/>
        <pt x="281" y="697" on="0"/>
        <pt x="35" y="617" on="1"/>
        <pt x="14" y="610" on="0"/>
      </contour>
    </TTGlyph>
    <TTGlyph name="tildecomb" xMin="-1443" yMin="610" xMax="-2" yMax="749">
      <contour>
        <pt x="-1433" y="610" on="1"/>
        <pt x="-1443" y="643" on="1"/>
        <pt x="-1443" y="646" on="0"/>
        <pt x="-1345" y="678" on="0"/>
        <pt x="-1325" y="683" on="1"/>
        <pt x="-1190" y="726" on="0"/>
        <pt x="-1076" y="741" on="1"/>
        <pt x="-1025" y="749" on="0"/>
        <pt x="-968" y="749" on="1"/>
        <pt x="-909" y="749" on="0"/>
        <pt x="-897" y="748" on="1"/>
        <pt x="-820" y="740" on="0"/>
        <pt x="-693" y="703" on="1"/>
        <pt x="-603" y="677" on="0"/>
        <pt x="-545" y="669" on="1"/>
        <pt x="-500" y="662" on="0"/>
        <pt x="-445" y="662" on="1"/>
        <pt x="-282" y="662" on="0"/>
        <pt x="-36" y="742" on="1"/>
        <pt x="-15" y="749" on="0"/>
        <pt x="-12" y="749" on="1"/>
        <pt x="-2" y="716" on="1"/>
        <pt x="-2" y="711" on="0"/>
        <pt x="-119" y="676" on="1"/>
        <pt x="-289" y="623" on="0"/>
        <pt x="-432" y="611" on="1"/>
        <pt x="-444" y="610" on="0"/>
        <pt x="-534" y="610" on="0"/>
        <pt x="-546" y="611" on="1"/>
        <pt x="-623" y="618" on="0"/>
        <pt x="-752" y="656" on="1"/>
        <pt x="-842" y="682" on="0"/>
        <pt x="-899" y="690" on="1"/>
        <pt x="-945" y="697" on="0"/>
        <pt x="-1000" y="697" on="1"/>
        <pt x="-1163" y="697" on="0"/>
        <pt x="-1409" y="617" on="1"/>
        <pt x="-1430" y="610" on="0"/>
      </contour>
    </TTGlyph>
    <TTGlyph name="uni0302" xMin="-1448" yMin="564" xMax="3" yMax="772">
      <contour>
        <pt x="-1448" y="603" on="1"/>
        <pt x="-1458" y="600" on="0"/>
        <pt x="-1096" y="685" on="0"/>
        <pt x="-910" y="728" on="1"/>
        <pt x="-724" y="772" on="1"/>
        <pt x="-361" y="688" on="1"/>
        <pt x="2" y="603" on="0"/>
        <pt x="3" y="603" on="1"/>
        <pt x="3" y="602" on="0"/>
        <pt x="-1" y="583" on="1"/>
        <pt x="-5" y="564" on="1"/>
        <pt x="-9" y="564" on="0"/>
        <pt x="-718" y="698" on="0"/>
        <pt x="-722" y="698" on="1"/>
        <pt x="-725" y="698" on="0"/>
        <pt x="-1082" y="631" on="1"/>
        <pt x="-1437" y="564" on="0"/>
        <pt x="-1440" y="564" on="1"/>
        <pt x="-1444" y="583" on="1"/>
        <pt x="-1448" y="602" on="0"/>
      </contour>
    </TTGlyph>
    <TTGlyph name="uni2308" xMin="246" yMin="-949" xMax="571" yMax="1450">
      <contour>
        <pt x="246" y="-949" on="1"/>
        <pt x="246" y="1450" on="1"/>
        <pt x="571" y="1450" on="1"/>
        <pt x="571" y="1388" on="1"/>
        <pt x="308" y="1388" on="1"/>
        <pt x="308" y="-949" on="1"/>
      </contour>
    </TTGlyph>
    <TTGlyph name="uni2309" xMin="11" yMin="-949" xMax="336" yMax="1450">
      <contour>
        <pt x="11" y="1388" on="1"/>
        <pt x="11" y="1450" on="1"/>
        <pt x="336" y="1450" on="1"/>
        <pt x="336" y="-949" on="1"/>
        <pt x="274" y="-949" on="1"/>
        <pt x="274" y="1388" on="1"/>
      </contour>
    </TTGlyph>
    <TTGlyph name="uni230A" xMin="246" yMin="-949" xMax="571" yMax="1450">
      <contour>
        <pt x="246" y="-949" on="1"/>
        <pt x="246" y="1450" on="1"/>
        <pt x="308" y="1450" on="1"/>
        <pt x="308" y="-887" on="1"/>
        <pt x="571" y="-887" on="1"/>
        <pt x="571" y="-949" on="1"/>
      </contour>
    </TTGlyph>
    <TTGlyph name="uni230B" xMin="11" yMin="-949" xMax="336" yMax="1450">
      <contour>
        <pt x="274" y="-887" on="1"/>
        <pt x="274" y="1450" on="1"/>
        <pt x="336" y="1450" on="1"/>
        <pt x="336" y="-949" on="1"/>
        <pt x="11" y="-949" on="1"/>
        <pt x="11" y="-887" on="1"/>
      </contour>
    </TTGlyph>
    <TTGlyph name="uni27E8" xMin="126" yMin="-950" xMax="654" yMax="1450">
      <contour>
        <pt x="126" y="242" on="1"/>
        <pt x="126" y="259" on="1"/>
        <pt x="361" y="845" on="1"/>
        <pt x="595" y="1431" on="0"/>
        <pt x="597" y="1435" on="1"/>
        <pt x="608" y="1450" on="0"/>
        <pt x="624" y="1450" on="1"/>
        <pt x="637" y="1450" on="0"/>
        <pt x="654" y="1432" on="0"/>
        <pt x="654" y="1419" on="1"/>
        <pt x="654" y="1411" on="1"/>
        <pt x="422" y="831" on="1"/>
        <pt x="190" y="253" on="0"/>
        <pt x="190" y="247" on="0"/>
        <pt x="422" y="-331" on="1"/>
        <pt x="654" y="-910" on="1"/>
        <pt x="654" y="-919" on="1"/>
        <pt x="654" y="-933" on="0"/>
        <pt x="636" y="-950" on="0"/>
        <pt x="612" y="-950" on="0"/>
        <pt x="597" y="-935" on="1"/>
        <pt x="595" y="-931" on="0"/>
        <pt x="361" y="-345" on="1"/>
      </contour>
    </TTGlyph>
    <TTGlyph name="uni27E9" xMin="94" yMin="-949" xMax="623" yMax="1450">
      <contour>
        <pt x="125" y="-949" on="1"/>
        <pt x="95" y="-949" on="0"/>
        <pt x="95" y="-919" on="1"/>
        <pt x="95" y="-910" on="1"/>
        <pt x="327" y="-331" on="1"/>
        <pt x="559" y="247" on="0"/>
        <pt x="559" y="253" on="0"/>
        <pt x="327" y="831" on="1"/>
        <pt x="94" y="1411" on="0"/>
        <pt x="94" y="1424" on="1"/>
        <pt x="94" y="1426" on="0"/>
        <pt x="95" y="1428" on="1"/>
        <pt x="104" y="1450" on="0"/>
        <pt x="124" y="1450" on="1"/>
        <pt x="141" y="1450" on="0"/>
        <pt x="152" y="1435" on="1"/>
        <pt x="154" y="1431" on="0"/>
        <pt x="388" y="845" on="1"/>
        <pt x="623" y="259" on="1"/>
        <pt x="623" y="242" on="1"/>
        <pt x="388" y="-345" on="1"/>
        <pt x="153" y="-933" on="0"/>
        <pt x="152" y="-934" on="1"/>
        <pt x="144" y="-949" on="0"/>
      </contour>
    </TTGlyph>
    <TTGlyph name="uniEFFD" xMin="0" yMin="0" xMax="300" yMax="100">
      <contour>
        <pt x="0" y="0" on="1"/>
        <pt x="0" y="100" on="1"/>
        <pt x="100" y="100" on="1"/>
        <pt x="100" y="0" on="1"/>
      </contour>
      <contour>
        <pt x="200" y="0" on="1"/>
        <pt x="200" y="100" on="1"/>
        <pt x="300" y="100" on="1"/>
        <pt x="300" y="0" on="1"/>
      </contour>
    </TTGlyph>
    <TTGlyph name="uniEFFE" xMin="0" yMin="0" xMax="300" yMax="100">
      <contour>
        <pt x="0" y="0" on="1"/>
        <pt x="0" y="100" on="1"/>
        <pt x="100" y="100" on="1"/>
        <pt x="100" y="0" on="1"/>
      </contour>
      <contour>
        <pt x="200" y="0" on="1"/>
        <pt x="200" y="100" on="1"/>
        <pt x="300" y="100" on="1"/>
        <pt x="300" y="0" on="1"/>
      </contour>
    </TTGlyph>
    <TTGlyph name="uniEFFF" xMin="0" yMin="0" xMax="100" yMax="100">
      <contour>
        <pt x="0" y="0" on="1"/>
        <pt x="0" y="100" on="1"/>
        <pt x="100" y="100" on="1"/>
        <pt x="100" y="0" on="1"/>
      </contour>
    </TTGlyph>
</ttFont>
